<?xml version="1.0" encoding="utf-8"?>
<!-- Generator: Adobe Illustrator 19.2.1, SVG Export Plug-In . SVG Version: 6.00 Build 0)  -->
<svg version="1.1" id="Layer_1" xmlns="http://www.w3.org/2000/svg" xmlns:xlink="http://www.w3.org/1999/xlink" x="0px" y="0px"
	 viewBox="0 0 595.3 841.9" style="enable-background:new 0 0 595.3 841.9;" xml:space="preserve">
<style type="text/css">
	.st0{fill:#E6E7E8;stroke:#000000;stroke-linecap:round;stroke-miterlimit:10;}
	.st1{fill:url(#SVGID_1_);}
	.st2{fill:url(#SVGID_2_);}
	.st3{fill:url(#SVGID_3_);}
	.st4{fill:#CD2027;}
</style>
<line class="st0" x1="1.4" y1="557.7" x2="197.1" y2="215.6"/>
<line class="st0" x1="347.9" y1="214.9" x2="595.7" y2="591.3"/>
<line class="st0" x1="197.5" y1="214.2" x2="197.5" y2="2.7"/>
<line class="st0" x1="347.1" y1="214.9" x2="355.7" y2="2.7"/>
<g>
	<g>
		<linearGradient id="SVGID_1_" gradientUnits="userSpaceOnUse" x1="495.4934" y1="203.0175" x2="384.1455" y2="138.7307">
			<stop  offset="0" style="stop-color:#FFFFFF"/>
			<stop  offset="1" style="stop-color:#000000"/>
		</linearGradient>
		<path class="st1" d="M376.6,180.8c11.1-12.3,25.1-22.2,40.4-28c7.7-2.9,16.3-5.2,24-6.3c3.6-0.5,8.3-0.8,12.3-0.9
			c2.3,0,4.7,0,7,0.1c1,0,2.1,0.1,3.1,0.2c2.3,0.3-1.8-0.8,1.4,0.4c-1.8-1.1-3.7-2.1-5.5-3.2c0.3,0.3,0.6,0.5,0.8,0.8
			c-1.1-1.8-2.1-3.7-3.2-5.5c0.1,0.4,0.2,0.8,0.3,1.2c0-2.2,0-4.4,0-6.6c0.4-1.5-0.6,1.4-0.9,1.9c-0.7,1.3-1.4,2.6-2.1,3.9
			c-1.3,2.3-2.5,4.7-3.7,7c-2.8,5.4-5.3,10.9-7.7,16.6c-4.5,10.9-7.5,22.5-7.6,34.4c-0.1,13.1,5.7,25.3,19.8,27.3
			c5.8,0.8,11.4-0.2,17.1-1c6.1-0.9,12.2-1.7,18.3-2.6c-4.1-7-8.1-13.9-12.2-20.9c-9.4,8.9-18.8,17.9-28.1,26.8
			c-11.7,11.1,6,28.8,17.7,17.7c9.4-8.9,18.8-17.9,28.1-26.8c4-3.8,4.7-10.5,2-15.1c-3-5.2-8.5-6.5-14.1-5.7
			c-7.6,1.1-15.5,2.7-22.8,3.1c0.2,0-2.8-0.1-2.9,0c0.1-0.1,0.8,0,0.8,0.2c0,0.1,0.5,0.3,0.6,0.5c2.7,3.6,0.4,1.4,0.7,0.4
			c0.4-1.3-0.1-7,0.3-9.8c1.9-15.5,9.9-29.8,17.4-43.2c2.5-4.5,4.7-9.2,3.4-14.5c-1.4-5.9-5.8-9.8-11.6-11.3
			c-7.3-1.8-16-1.3-23.4-0.7c-16.1,1.2-31.4,5.3-46.1,11.9c-15.6,7-29.8,17.5-41.3,30.2c-4.5,5-4.9,12.7,0,17.7
			C363.6,185.4,372.1,185.8,376.6,180.8L376.6,180.8z"/>
	</g>
</g>
<g>
	<g>
		<linearGradient id="SVGID_2_" gradientUnits="userSpaceOnUse" x1="171.0636" y1="314.4762" x2="-110.32" y2="152.0193">
			<stop  offset="0" style="stop-color:#FFFFFF"/>
			<stop  offset="1" style="stop-color:#000000"/>
		</linearGradient>
		<path class="st2" d="M91.4,185.7c8.5-45.8,7.2-92.9-4.4-138.1C83.5,33.9,62.6,36.9,62.5,51c-0.3,42.4,0.9,84.7,3.9,127
			c1.4,20.7,3.6,41.3,5.3,62c0.8,10,1.3,20,0.7,30c-0.2,4.2-0.6,8.3-1.4,12.4c-0.5,2.4-1,4.9-1.6,7.3c-0.4,1.6-1.7,4.8-1.7,5
			c-0.3,2.3-0.1-0.7,0.2,0c-0.3-0.6,8.2-1.6,8.8,0.9c-0.5-2.1-2.7-4.9-3.6-6.8c-2.2-4.3-4.3-8.7-6.1-13.2c-4-10.2-7.2-20.7-9.5-31.5
			c-8,2.2-16.1,4.4-24.1,6.6C45.6,296.9,57.8,343,70,389.2c1.4,5.3,6.6,9.2,12.1,9.2c5,0,11.2-3.8,12.1-9.2
			c12.8-82.7,21.7-165.9,26.5-249.4c-8.2,1.1-16.4,2.2-24.6,3.3c8.6,37.3,12.1,75.4,15.5,113.5c0.6,6.2,4.3,11.5,10.8,12.3
			c6.3,0.7,11.8-2.9,13.7-9c15.6-49.7,31.2-99.4,46.8-149.1c2-6.4-2.4-13.6-8.7-15.4c-7.2-2-12.8,2.5-15.4,8.7
			c-4.9,11.8-11.6,22.8-19.2,33c7.6,3.2,15.2,6.4,22.8,9.6c7.1-18.6,13.1-37.5,18-56.8c2.2-8.8-6.1-18.5-15.4-15.4
			c-38.7,13.1-75.7,30.8-110,53c5,6.5,10.1,13.1,15.1,19.6c13.1-16,26.3-32,39.5-47.8c4.3-5.2,5.1-12.6,0-17.7
			c-5.2-5.2-12.4-4.2-17.7,0c-18.7,14.9-31.7,37.2-35.4,60.9c-0.9,5.6,0.6,11.1,5.7,14.1c4.5,2.6,11.6,2.3,15.1-2
			c12.2-14.7,21.7-31,28.1-49c3.4-9.6,3.8-20.8-5.9-26.9c-7.2-4.6-16.3-3.8-23.9-0.6c-15.4,6.6-26.6,23.2-33.7,37.7
			c-8.1,16.4-14,34.2-18.7,51.9c-5.8,21.6-9.3,43.7-11.1,66c-0.5,6.1,5.1,11.6,10.8,12.3c6.3,0.8,11.7-2.9,13.7-9
			c12.7-38.5,14.8-82.7-11.3-116.1c-5.6-7.1-19.5-3.3-20.9,5.5c-12.6,77.4-5.7,157.3,21.2,231c4.9,13.5,23.3,10.9,24.6-3.3
			c6.3-69.5-33.2-133.5-28.4-202.8c-8.3,0-16.7,0-25,0c-1.6,83.2-2,166.4-1.1,249.6c0.2,23.5,0.6,47.1,1,70.6c8.3,0,16.7,0,25,0
			c-0.9-25.1-3.6-50-8-74.7c-8,2.2-16.1,4.4-24.1,6.6C2.6,452.1,13.3,501,22.3,550.3c2.5,13.8,25.2,10.7,24.6-3.3
			c-0.8-15.7-8.1-30.7-6.7-46.5c0.7-7.6,3.1-15.1,5.1-22.4c2.4-8.6,4.8-17.3,7.2-25.9c9.3-33.6,18.6-67.1,27.9-100.7
			c-8-2.2-16.1-4.4-24.1-6.6c-9.6,36.9-20.3,73.4-32.1,109.6c8.2,1.1,16.4,2.2,24.6,3.3c3.4-32.8,9.9-65.1,19-96.8
			c-8.2-1.1-16.4-2.2-24.6-3.3c1.7,27.4,0.6,55-3.9,82.2c8.2,1.1,16.4,2.2,24.6,3.3c-1.4-27.5-2.9-57.4,18-78.2
			c10.6-10.5,23.3-18.7,33.2-30c10.7-12.1,18.8-26.2,23.7-41.6c4.5-13.9,6-28.4,9.6-42.5c1.7-6.6,3.6-12.5,6.9-18.3
			c3.4-5.9,8.1-10.5,12.3-15.8c5.6-7.1,9.3-14.5,10.5-23.6c1.1-8.7-0.2-17.2-1.4-25.9c-2.4-17.6-5.1-35.1-7.9-52.7
			c-6.4-39.6-13.8-79-22.2-118.2c-2-9.3-14.5-11.9-20.9-5.5c-6.6,6.6-14.9,9.4-24.7,11.2C90.5,4.2,78.1,4.5,66.7,4.8
			C38.9,5.8,11.2,5-16.5,2.5c1.1,8.2,2.2,16.4,3.3,24.6c30.9-7.3,62.5-11,94.2-12.6c16.3-0.8,32.6-1.2,49-1.3c8,0,16,0,24,0
			c3.8,0,7.7,0,11.5,0.1c3.9,0,8.7,0.8,12.5,0.1c0.4-0.1,1.4-0.1,1.3,0c-1.5,2.1-3.4-8.1-4.9-4.4c-0.7,1.6-0.1,5.1-0.3,6.8
			c-0.3,3.5-1,6.9-1.8,10.3c-1.9,7.8-5,14.8-9.2,21.6c4.7-1.9,9.4-3.8,14.1-5.7c-17.1-6.6-34.5-12.4-52.2-17.2
			c-9.1-2.5-18.3-4.8-27.6-6.9c-8.7-1.9-17.6-4-26.5-4.1C52,13.6,37.4,24.1,25.3,37.7C13.7,50.7,5,65.3-1.8,81.3
			C-6.6,92.6,11.5,103,19.1,93.5C30,79.8,42.1,67.2,55.5,56c6-5,12.4-10,19.6-13.3c5.3-2.4,11.6-4.2,16.2-2.2
			c-2.1-3.6-4.1-7.2-6.2-10.8c1.5,23.9-0.7,47.6-6.9,70.8c-3.7,13.8,15.4,21.7,22.8,9.6c11.2-18.1,22.4-36.2,33.6-54.3
			c-7.8-2.1-15.5-4.2-23.3-6.3c-1.1,26.2-2.3,52.4-3.4,78.6c-0.3,6.1,5,11.6,10.8,12.3c6.6,0.8,11.4-3,13.7-9
			c5.9-15.2,11.8-30.5,17.7-45.7c-8.2-1.1-16.4-2.2-24.6-3.3c0.4,11.6,1.7,23.1,3.9,34.6c1.4,7.7,12,11.7,18.4,7.5
			c3.1-2,6.1-4.1,9.2-6.1c-6.3-3.6-12.5-7.2-18.8-10.8c0.1,10.3,0.2,20.6,0.3,30.8c0.2,13.6,21.7,17.5,24.6,3.3
			c4.4-21.9,7.6-44.1,9.7-66.4c-8.2,1.1-16.4,2.2-24.6,3.3c3.2,9.2,8.9,16.7,17.4,21.5c6.8,3.8,16.5,0.5,18.4-7.5
			c4-17.5,6.3-35.4,6.8-53.4c-8.3,0-16.7,0-25,0c0.9,10.4,1.8,20.8,2.7,31.1c0.6,6.7,5.3,12.5,12.5,12.5c6.8,0,12.4-5.7,12.5-12.5
			c0-4.6,0.1-9.2,0.1-13.8c-8.2,1.1-16.4,2.2-24.6,3.3c11.6,45.1,11.7,92.6,0.3,137.8c8,2.2,16.1,4.4,24.1,6.6
			c0.9-4,1.9-8.1,2.8-12.1c-8.2-1.1-16.4-2.2-24.6-3.3c1.8,13.9,3.7,27.8,5.5,41.7c0.8,6.3,1.9,12.6,2.4,18.9c0.2,2.5,0.1,4.9,0,7.3
			c0.1-1.7-0.8,1.9,0,0.4c-1,1.8,0.3,0.3-1.3,1.8c6.5,0.8,13.1,1.7,19.6,2.5c-6.5-8.6-15.9-12.1-26.5-9.4
			c-9.6,2.5-15.8,10.6-21.3,18.2c7.8,2.1,15.5,4.2,23.3,6.3c-0.4-11.5,0.1-23.1,2-34.5c2.4-14-14.5-21.6-22.8-9.6
			c-12.7,18.3-22.1,38.7-31.5,58.8c-9.7,20.7-17.7,41.4-22.9,63.6c-2.3,10-5.2,19.1-10.8,27.7c-5.5,8.4-12.3,15.8-18.5,23.7
			c-14,17.8-26.4,36.6-38.2,55.8C17.3,484.7,4,507.4-9.4,530c7.6,1,15.2,2,22.8,3c-7.3-25.2,2.7-51,12.2-74.3
			c5-12.3,10.3-24.5,14-37.3c3.9-13.3,5.7-27.1,6.6-40.9c1.7-27.2-0.9-54.5,2.1-81.6c2.7-25.1,12.4-48.8,23.1-71.4
			c6.1-12.7,13-25.1,18.7-38c5.6-12.5,8.7-29.2-3.1-39.4c-5.1-4.4-12.7-5-17.7,0c-4.5,4.5-5.1,13.3,0,17.7c2,1.7,0.3-1.1,1.2,1.2
			c-0.8-2.2-0.5,1.3-0.2,0c-0.2,1.1-0.1,1.9-0.7,4.2c-1.4,5.2-3.4,8.5-6.2,14.1c-5.6,11.3-11.3,22.5-16.6,34
			c-11.2,24.3-20.1,48.9-23.3,75.6c-3.1,26.5-0.8,53.1-2.1,79.7c-0.6,12.9-2.3,25.6-5.9,38c-3.7,12.8-9,25-14,37.3
			c-11.3,27.6-20.8,57.7-12.2,87.5c3,10.3,17.3,12.3,22.8,3c23.2-39,45.1-79.5,72.7-115.8c13.1-17.2,28.1-32.4,34.7-53.5
			c3.3-10.6,5.1-21.6,8.4-32.2c3.2-10,7.1-19.8,11.5-29.3c10.3-22.7,20.8-46,35.1-66.5c-7.6-3.2-15.2-6.4-22.8-9.6
			c-2.3,13.6-3.4,27.3-2.9,41.1c0.5,13,16.2,16.2,23.3,6.3c1.6-2.2,3.9-5,5.6-6.3c1.5-0.8,1.7-1,0.7-0.4c1.5-0.4,1.7-0.4,0.5-0.1
			c-1.2-0.3-1.1-0.2,0.4,0.1c-1.2-0.2-2.1-0.9-2.7-2.2c4.8,6.4,13.3,8.7,19.6,2.5c11.3-10.9,8.8-26.3,7-40.3
			c-2.1-15.8-4.2-31.7-6.3-47.5c-0.8-6.2-4.1-11.5-10.8-12.3c-5.9-0.7-12.3,2.8-13.7,9c-0.9,4-1.9,8.1-2.8,12.1
			c-1.5,6.6,2,13.5,8.7,15.4c6.4,1.8,13.7-2.2,15.4-8.7c12.6-49.5,12.5-101.7-0.3-151.1c-3.5-13.8-24.4-10.7-24.6,3.3
			c0,4.6-0.1,9.2-0.1,13.8c8.3,0,16.7,0,25,0c-0.9-10.4-1.8-20.8-2.7-31.1c-0.6-6.7-5.3-12.5-12.5-12.5c-6.9,0-12.3,5.7-12.5,12.5
			c-0.4,15.8-2.4,31.4-5.9,46.8c6.1-2.5,12.2-5,18.4-7.5c-3.1-1.8-4.9-3.7-5.9-6.6c-4.7-13.7-23.3-10.7-24.6,3.3
			c-1.8,20.1-4.8,40-8.8,59.7c8.2,1.1,16.4,2.2,24.6,3.3c-0.1-10.3-0.2-20.6-0.3-30.8c-0.1-9-10.7-16.2-18.8-10.8
			c-3.1,2-6.1,4.1-9.2,6.1c6.1,2.5,12.2,5,18.4,7.5c-1.7-9.2-2.7-18.5-3-27.9c-0.2-6.2-4.6-11.5-10.8-12.3c-6.6-0.8-11.4,3-13.7,9
			c-5.9,15.2-11.8,30.5-17.7,45.7c8.2,1.1,16.4,2.2,24.6,3.3c1.1-26.2,2.3-52.4,3.4-78.6c0.6-12.8-17-16.4-23.3-6.3
			c-11.2,18.1-22.4,36.2-33.6,54.3c7.6,3.2,15.2,6.4,22.8,9.6c6.7-25.2,9.4-51.4,7.8-77.4c-0.3-4.1-2.1-9-6.2-10.8
			c-21.6-9.4-42,0.5-59.3,13.9c-16.1,12.6-30.6,27-43.2,43c7,4.1,13.9,8.1,20.9,12.2c5.2-12.3,12.8-24,21.8-33.8
			c4.4-4.8,9.1-9.8,15-12.8c5.4-2.8,11.4-2.8,17.3-2.1c15.9,1.9,32,6.8,47.4,11.2c15.8,4.5,31.4,9.8,46.7,15.7
			c5.2,2,11.4-1.3,14.1-5.7c9.1-15,14.9-33,14.7-50.6c-0.1-11.5-6.7-20-18.4-21.2c-8.9-0.9-18.1-0.3-27-0.4
			C117.3-12,80.4-11.5,43.8-7.6C22.4-5.4,1.1-2-19.8,3c-6,1.4-9.8,7.8-9,13.7c1,6.5,5.9,10.3,12.3,10.8c29.6,2.6,59.4,3.4,89.1,2.1
			c24.6-1,52.1-2.3,70.6-20.9c-7-1.8-13.9-3.7-20.9-5.5c7.4,34.4,14,69,19.8,103.7c2.9,17.5,5.7,35.1,8.2,52.6
			c1.9,12.9,7.1,29.6-1.5,41c-4.4,5.8-9.7,10.8-13.6,16.9c-4.1,6.4-7.1,13.6-9.3,20.8c-4.3,13.9-5.8,28.4-9.5,42.4
			c-3.5,13.2-9.6,25.7-18.5,36.1c-9.8,11.4-22.5,19.6-33.2,30c-12.5,12.2-20.7,27.6-23.9,44.8c-3.3,17.1-2.9,34.4-2,51.7
			c0.3,6.2,4.5,11.5,10.8,12.3c5.6,0.7,12.7-2.7,13.7-9c4.8-29.4,6.6-59.1,4.7-88.8c-0.8-13.8-20.5-17.4-24.6-3.3
			c-9.7,33.8-16.2,68.4-19.8,103.4c-0.6,6.1,5.2,11.6,10.8,12.3c6.3,0.8,11.7-2.9,13.7-9c11.9-36.2,22.6-72.8,32.1-109.6
			c4-15.6-19.8-22.2-24.1-6.6c-9.5,34.2-19,68.4-28.4,102.6c-4.7,16.8-10.6,33.8-12.5,51.2c-0.9,8.5,0.1,16.8,1.9,25.1
			c1.7,7.7,4.2,15.3,4.6,23.3c8.2-1.1,16.4-2.2,24.6-3.3c-9-49.3-19.7-98.3-32.3-146.8c-1.7-6.5-8.9-10.5-15.4-8.7
			c-7,1.9-9.9,8.7-8.7,15.4c4,22.5,6.3,45.2,7.1,68.1c0.6,16,25.3,16.1,25,0c-1.5-83.2-1.9-166.4-1-249.6
			c0.3-23.5,0.6-47.1,1.1-70.6c0.1-6.8-5.8-12.5-12.5-12.5c-7.2,0-12,5.7-12.5,12.5c-4.8,69.4,34.7,133.5,28.4,202.8
			c8.2-1.1,16.4-2.2,24.6-3.3c-25.3-69.3-33-144.8-21.2-217.7c-7,1.8-13.9,3.7-20.9,5.5c19.7,25.2,14.5,62.4,4.8,91.8
			c8.2,1.1,16.4,2.2,24.6,3.3c1.5-19.4,4.8-38.6,9.7-57.5c4.6-17.5,10-35.4,18.5-51.2c3.8-7.1,7.9-13.4,13.7-18.9
			c1.1-1,2.4-2.3,3.4-3.1c0.3-0.3,4.6-2.7,2.5-1.8c0.8-0.3,1.5-0.5,2.3-0.7c1.5-0.3,1.6-0.3,0.2,0c1.5,0.1,1.5,0-0.1-0.1
			c-1.5-0.6-2.7-1.6-3.6-3.1c-1.8-3.4-0.5-3.9-1.8,0.1c-0.7,2.2-1.5,4.4-2.4,6.5c-1.6,3.8-3.4,7.6-5.3,11.2
			c-4.1,7.7-8.9,15.2-14.5,21.9c7,4.1,13.9,8.1,20.9,12.2c3.2-20.1,13-37.1,28.9-49.8c-5.9-5.9-11.8-11.8-17.7-17.7
			c-13.3,15.9-26.5,31.8-39.5,47.8c-3.9,4.8-5.1,11.2-1,16.4c3.7,4.7,10.8,6.7,16.1,3.2c32.5-21,67.3-38.1,104-50.5
			c-5.1-5.1-10.3-10.3-15.4-15.4c-4.9,19.3-10.9,38.2-18,56.8c-2.2,5.7,2,12.6,7.2,14.7c6.2,2.5,11.8,0,15.6-5.1
			c9-12,16-25.1,21.7-39c-8-2.2-16.1-4.4-24.1-6.6c-15.6,49.7-31.2,99.4-46.8,149.1c8.2,1.1,16.4,2.2,24.6,3.3
			c-3.6-40.3-7.3-80.7-16.4-120.1c-1.4-6-7.9-9.8-13.7-9c-6.3,1-10.5,5.9-10.8,12.3C90.9,221.1,82.4,302.1,70,382.6
			c8,0,16.1,0,24.1,0C81.9,336.4,69.7,290.2,57.5,244c-1.7-6.5-8.9-10.5-15.4-8.7c-6.8,1.9-10.1,8.8-8.7,15.4
			c2.3,10.7,5.4,21.3,9.5,31.5c2,5.1,4.2,10.2,6.6,15.2c2.5,5.1,4.9,10.9,8.8,15.1c10,10.5,24.7,5.8,31.3-5.8
			c5.6-9.8,6.8-22.8,7.6-33.8c1.7-23.1-2-46.3-3.9-69.3c-2-23.9-3.5-47.8-4.5-71.8c-1.1-26.9-1.5-53.8-1.3-80.8
			c-8.2,1.1-16.4,2.2-24.6,3.3c10.4,40.7,12,83.5,4.4,124.8c-1.2,6.6,1.8,13.5,8.7,15.4C82.1,196.1,90.2,192.4,91.4,185.7
			L91.4,185.7z"/>
	</g>
</g>
<g>
	<g>
		<linearGradient id="SVGID_3_" gradientUnits="userSpaceOnUse" x1="712.9235" y1="366.0548" x2="298.4764" y2="126.7737">
			<stop  offset="0" style="stop-color:#FFFFFF"/>
			<stop  offset="1" style="stop-color:#000000"/>
		</linearGradient>
		<path class="st3" d="M382.8,69.9c-2-8.9-4-17.7-6-26.6c-0.9-4.1-1.9-8.2-2.8-12.4c0,0.1-1-4.1-0.7-4.1c0.3,0-1.2,2.5-1.5,2
			c-0.3-0.6,4.6-1.7,6-2c1.5-0.3,0.3,0,0,0c0.9-0.1,1.7-0.1,2.6-0.2c2.6-0.2,5.3-0.3,8-0.4c8.9-0.5,17.9-0.9,26.8-1.2
			c37.1-1.4,74.3-1.5,111.4-0.4c20.9,0.6,41.8,1.6,62.6,2.9c-4-5.3-8-10.5-12.1-15.8c-1.5,7-7.5,11.4-15.5,13.4
			c-11.8,2.9-24.8,0.3-36.8-0.3c-25.8-1.3-51.8,0.9-77.2,6c-12.3,2.5-24.4,5.7-36.3,9.6c-5.8,1.9-11.5,4-17.2,6.3
			c-5.8,2.3-11.8,4.5-16.9,8.1c-11.5,8.2-16.7,23-6.7,34.7c7.8,9.1,21.3,11.6,32.4,14.3c25.6,6.4,51.7,9.8,77.7,13.7
			c6,0.9,11.9,1.8,17.9,2.8c1.5,0.3,3.6,1,5.2,0.9c0.5,0.1,0.9,0.2,1.4,0.3c-0.1-0.1-0.2-0.2-0.3-0.3c-1.6,2.5-3.6-8.6-2.2-7.7
			c0.3,0.2-1.4,1.8-1.5,1.8c-3.2,3.5-7.2,6.1-10.3,9.8c-4,4.8-6.8,10-8.8,15.9c-7,20.8-0.4,44.3,4.4,64.8
			c5.5,23.6,11.9,46.9,22.5,68.8c3,6.1,6.2,12.4,10.1,18c5.7,8.2,15.8,6.9,24,3.5c12.9-5.3,21.1-16.7,29-27.6
			c18.5-25.3,37-50.5,55.6-75.8c-4.7,1.9-9.4,3.8-14.1,5.7c-0.2-0.1-5.9-5.5-5.3-5.8c0-0.2,0-0.4,0-0.5c0.1,0.6,0.1,1.2,0,1.8
			c0,1.5,0.1,0,0.1-0.3c-0.1,0.7-0.3,1.4-0.5,2.1c-1.1,4.5-2.2,8.9-3.3,13.3c-2.2,8.9-4.4,17.8-6.7,26.6
			c-4.4,17.1-8.8,34.2-13.3,51.3c-9.2,34.4-18.7,68.8-28.6,103c-5.6,19.5-11.4,38.9-17.3,58.3c7.6-1,15.2-2,22.8-3
			c-9.4-18.1-11-39.2-13.1-59.2c-2.5-23.7-4.6-47.4-6.6-71.1c-3.9-47.5-6.8-95-9.3-142.5c-1.4-27.1-2.7-54.2-3.9-81.3
			c-8.2,1.1-16.4,2.2-24.6,3.3c24.2,71.8,41.8,145.5,57.8,219.4c4.6,21.1,9,42.2,13.5,63.3c1.4,6.6,9.2,10.4,15.4,8.7
			c7.1-2,9.7-8.7,8.7-15.4C587.1,288.3,574.6,205.6,562,123c-3.6-23.4-7.1-46.8-10.7-70.1c-8,2.2-16.1,4.4-24.1,6.6
			c14.8,53.7,31.8,106.9,51,159.2c4.9,13.3,23.4,11,24.6-3.3c1-12.4-1.3-24.7-3.9-36.8c-2.7-12.6-5.6-25.1-8.4-37.7
			c-5.6-25-11.1-49.9-16.7-74.9c-1.5-6.6-9.1-10.5-15.4-8.7c-7.2,2-9.7,8.7-8.7,15.4c9.2,66.6,14.8,133.7,17.1,200.8
			c0.6,16.7,0.9,33.5,1.1,50.2c0.2,16.6-0.1,33.3,1.7,49.8c1,8.7,2.3,17.3,4.5,25.7c1.9,7.4,4.5,14.8,5.5,22.4
			c2.1,15.6-0.9,32.1-2.8,47.6c-4.3,36.2-8.5,73.2,1.5,108.9c8-2.2,16.1-4.4,24.1-6.6c-10.2-27-28-49-45.1-71.9
			c-8.6-11.5-16.7-23.4-23.3-36.2c-6.6-12.9-11.7-26.4-16.1-40.2c-17.1-54-23.4-111.4-52.1-161.2c-14.8-25.8-35.5-48.7-62.3-62.3
			c-7.6-3.9-15.5-0.4-18.4,7.5c-7.2,20-9.7,46.3,1.7,65.3c5.2,8.7,13,15.1,20.4,22c6.1,5.7,12.4,12.6,17,18.8
			c22,29.2,34.7,64.2,49.2,97.4c8.4,19.2,17.4,38.1,28.9,55.5c3.4,5.2,9.7,7.7,15.6,5.1c5.5-2.4,9.2-8.7,7.2-14.7
			c-27.4-86.7-71.5-167.1-121.7-242.6c-14.2-21.3-28.8-42.3-43.8-63.1c-6.4-8.9-19.1-7.6-22.8,3c-4,11.3-1.6,23.4,0.9,34.7
			c0.6,2.6,1.1,5.2,1.6,7.8c0.1,0.5,0.6,4,0.3,1.7c0.1,1.2,0.2,2.4,0.3,3.7c0,1.2,0,2.4-0.1,3.6c0.1-1.8,0-0.4-0.2,0.6
			c-0.1,0.6-0.3,1.1-0.5,1.6c0.5-1.1,0.6-1.2,0.2-0.4c-0.3,0.5-0.5,1-0.9,1.5c0.8-0.9,0.7-0.8-0.3,0.3c7,4.1,13.9,8.1,20.9,12.2
			c13.3-40.9,16.2-84.1,9.6-126.5c-4,5.3-8,10.5-12.1,15.8c0.9-0.1,1.8-0.2,2.7-0.1c-2.1-0.2,0.8,0.8,0.1,0.3c0.4,0.3,0.7,0.4,2,1.6
			c2.7,2.6,4.3,5.5,6.3,9.3c4.6,9,8.6,18.3,12.4,27.7c8.1,20,14.8,40.6,20.2,61.5c2.7,10.4,17.5,12.2,22.8,3
			c9.5-16.5,15.1-34.2,17.6-53.1c-8.2,1.1-16.4,2.2-24.6,3.3c4.6,31.8,10.6,63.4,18.1,94.6c3.1,12.8,6.8,25.9,15.8,35.9
			c8.8,9.9,23.1,13.8,35.5,9c6.4-2.4,11.7-6.1,17.1-10.2c2.5-1.9,5-3.8,7.6-5.5c1.3-0.8,2.6-1.6,4-2.3c0,0,1.9-0.9,0.9-0.5
			c-0.8,0.4,2.2-0.7,2.1-0.7c-4.1-1.1-8.1-2.1-12.2-3.2c6,4.7,9.6,11,12.2,18c3.6,9.9,6.4,20,9.5,30.1c6.7,21.8,13.4,43.6,20.1,65.5
			c7.6-3.2,15.2-6.4,22.8-9.6c-19-43.3-44.3-83.5-74.6-119.7c-6.5-7.8-18.1-2.6-20.9,5.5c-9.1,25.9-8.9,55.1,0.7,80.9
			c4.5,12.1,19.4,11.5,24.1,0c9.5-23.2,13.2-48.7,10.6-73.6c-0.7-6.7-5.2-12.5-12.5-12.5c-6.5,0-12.8,5.7-12.5,12.5
			c1,23.1,2.1,46.3,3.1,69.4c0.3,6.2,4.5,11.5,10.8,12.3c5.7,0.7,12.6-2.8,13.7-9c4.9-27,4.3-54.2,1.1-81.4
			c-2.8-23.5-5.8-47.9-12.9-70.6c-6.1-19.5-16.5-38.7-34.7-49.3c-3.8-2.2-8-3.9-12.1-5.6c-2-0.9-4.1-1.8-6-2.8
			c-1.1-0.6-2.3-1.2-3.3-1.9c-2-1.3,0.5,0.8-1.4-1c0.2,0.2-2.5-2.7-1.3-1.4c1.1,1.2-1-2.3,0.1,0c-1.3-3-0.1,0.7-0.3-1.1
			c-0.1-1.5-1.1,1.6,0.1-1c1.7-3.6-0.7,1.1,0.5-1c0.2-0.3,1.8-2.5,0.7-1.2c1.6-2,3.5-3.5,4.9-4.5c10.9-7.7,24.2-12.7,36.1-18.5
			c14-6.8,28.1-13.5,42.1-20.1c10.3-4.9,6.5-19.8-3-22.8c-43-13.7-87.6-21.8-132.6-24.5c-14.4-0.8-16.6,20.7-3.3,24.6
			C423,77.1,458.9,87.2,496.1,92c17.4,2.2,35.4,3.6,52.8,1.8c16.4-1.7,33.9-6.5,45-19.7c11.4-13.6,16.1-33.9,5.8-49.6
			c-2.8-4.2-8.9-7.8-14.1-5.7c-27.6,11-44.5,34.9-55.3,61.7c-11.3,27.9-14.3,58.8-28.5,85.6c7.8,2.1,15.5,4.2,23.3,6.3
			c-0.7-8.9-1.3-17.7-2-26.6c-0.5-6.7-5.4-12.5-12.5-12.5c-6.8,0-12.5,5.7-12.5,12.5c0,32.3-0.1,64.5-0.1,96.8c0,16,0,31.9-0.1,47.9
			c0,6.7,0.3,13.5-0.4,20.1c-0.4,3.7-1.7,7.3-4.8,9.8c5.9,0,11.8,0,17.7,0c-24.9-29.9-47-61.9-66.4-95.7c-3.1-5.4-10-7.6-15.6-5.1
			c-6.1,2.7-8.3,8.4-7.2,14.7c2.6,15.9,7.4,31.1,14.2,45.6c3.2,6.9,7.2,13.6,13.6,18.1c2.8,1.9,5.9,3.2,9.2,3.8
			c2.5,0.4,4.6,0.5,7,0.2c8.5-0.8-0.9-0.2-0.9-7.6c7.8-2.1,15.5-4.2,23.3-6.3c-10.7-24.5-23-48.2-37-71c-3.5-5.7-11.2-7.9-17.1-4.5
			c-6.4,3.8-7.2,10.9-4.5,17.1c8.7,20.3,23.3,37.2,41.3,49.8c4.2,2.9,11.8,2,15.1-2c20.3-24.4,20.4-59.5-0.4-83.6
			c-8.6-10.1-20.2-17.3-31.3-24.4c-2.6-1.6-5.1-3.3-7.6-5c-2.5-1.7-5.6-3.9-7-5c-2.3-1.9-4.5-3.8-6.6-5.9c-2.3-2.3-3.7-3.9-5.1-5.9
			c-8.9-12.9-13.8-28.4-28.5-36.2c-1,7.6-2,15.2-3,22.8c16.7-4.4,32.9-11,47.8-19.7c14-8.1,27.7-18.1,36.6-31.9
			c4.4-6.8,8.1-15.4,7.5-23.7c-0.8-10.9-8.1-16.9-17.8-20.4c-16.9-6.2-34.7-9.8-52.6-12.1c-19.8-2.6-39.9-2.7-59.8-0.4
			c-5,0.6-9.4,2.7-11.4,7.7c-1.7,4.3-1.3,10.4,2.6,13.7c3.8,3.2,7.6,5.4,12.3,6.9c3.4,1.1,7.8,1.6,10.5,2.6c4,1.5,6.9,6.8,8.6,11.5
			c6.6,17.8,11.4,36.5,16.5,54.7c10.3,36.5,17.7,74.1,30,110c6.1,18,13.7,35.5,23.5,51.8c9.7,16.1,21.1,31,32.1,46.1
			c21.5,29.6,41,60.6,58.3,92.8c19.3,36,35.6,73.5,49,112.1c5.1-5.1,10.3-10.3,15.4-15.4c-16.5-6.4-24.5-26.6-30.1-42.9
			c-7.7-22.3-17.1-43.5-27.4-64.7c-19.8-40.3-35-81.9-43.2-126.2c-4.4-23.8-8.7-49.7-2.2-73.5c4.3-15.5-19.8-22.2-24.1-6.6
			c-6.7,24.3-3.8,49.5,0,74c3.7,24,9.4,47.7,16.9,70.8c7.6,23.4,17.3,46,28.1,68.1c5.4,11,10.8,21.9,15.8,33.1
			c4.9,10.9,8.6,22,12.6,33.2c8.7,24.8,21.1,48.7,47,58.6c8.8,3.4,18.3-6.8,15.4-15.4c-24.4-70.6-58.4-137.9-101.3-199.1
			c-21.4-30.5-44.9-59.1-58.2-94.3c-13.4-35.6-20.7-73.4-30.8-110.1c-5.8-21.2-11.4-42.7-18.9-63.4c-3.1-8.6-7.2-17.2-14.4-23.1
			c-4.3-3.5-9.2-5.8-14.6-7.2c-1.9-0.5-3.8-0.8-5.8-1.3c-0.9-0.2-1.9-0.5-2.8-0.8c1.3,0.4-1.7-1.1-0.6-0.2
			c-2.9,7.1-5.9,14.2-8.8,21.3c19-2.2,38.1-2.2,57,0.1c9.3,1.1,18.5,2.9,27.5,5.2c4.8,1.2,9.5,2.5,14.2,4c2.2,0.7,4.7,2,7,2.3
			c2.8,0.4,0.5,0.8,0.3-0.4c-0.5-0.7-0.8-1.6-0.8-2.6c-0.1,1.6,0,1.9,0.1,0.9c-0.5,1.1-0.9,3.4-1.2,4.1c-1.4,3.3-3.6,6.5-5.7,9
			c-5,5.9-11,10.5-17.4,14.7c-15.3,9.9-31.8,17.2-49.4,21.8c-10.1,2.7-12.6,17.8-3,22.8c3.3,1.8,4.1,2.4,6.7,5.6
			c-0.7-0.9,1.7,2.5,2,3c1,1.6,1.9,3.2,2.8,4.8c4,7.1,7.7,14,12.9,20.3c9.9,11.9,23.6,19.8,36.4,28.2c6.5,4.2,10.9,7.2,16.1,12.3
			c5,4.8,8.5,9.4,10.5,15.4c4.2,12.6,2.4,27.2-6,37.3c5-0.7,10.1-1.3,15.1-2c-14.5-10.2-25.3-24.6-32.3-40.9
			c-7.2,4.2-14.4,8.4-21.6,12.6c14,22.8,26.3,46.5,37,71c2.2,5,9.2,7.1,14.1,5.7c5.3-1.5,9.2-6.6,9.2-12.1c0-11.2-9.8-18.3-20.4-18
			c-1.9,0.1-3.7,0.6-5.5,0.7c0.1,0-1.8-0.7-0.7,0c1.5,0.8-2.1-2.5-1.4-1.6c-0.9-1.2-1.5-2.5-2.2-3.8c-7.2-13.6-11.4-29-13.9-44.1
			c-7.6,3.2-15.2,6.4-22.8,9.6c20.4,35.6,44,69.2,70.3,100.7c4.6,5.5,12.8,4,17.7,0c11.4-9.3,12.4-25,12.5-38.6
			c0-17,0-33.9,0.1-50.9c0-34.3,0.1-68.5,0.1-102.8c-8.3,0-16.7,0-25,0c0.7,8.9,1.3,17.7,2,26.6c0.4,5.5,3.6,10.5,9.2,12.1
			c5.2,1.4,11.5-0.9,14.1-5.7c14.1-26.6,18.4-56.4,28.3-84.5c7.2-20.5,20.3-43.2,40.5-51.3c-4.7-1.9-9.4-3.8-14.1-5.7
			c0.7,1.1,1.5,2.2,2,3.4c-0.6-1.5,0.2,1.5,0.3,1.9c-0.4-1.8,0.1,1.2,0.1,1.8c0,0.7,0,1.3-0.1,2c-0.2,2.1,0.8-2.4-0.2,1.2
			c-1.3,4.6-2.8,8.1-6.2,11.4c-8,8.1-21.7,10-33.2,10.4c-31.6,1.2-63-4.4-93.5-12c-17.9-4.4-35.6-9.6-53.3-14.7
			c-1.1,8.2-2.2,16.4-3.3,24.6c42.8,2.5,85.1,10.5,126,23.6c-1-7.6-2-15.2-3-22.8c-12.9,6.1-25.8,12.2-38.6,18.4
			c-11.6,5.6-23.6,10.7-34.7,17.1c-9.9,5.7-19.5,13.9-22.7,25.4c-3.4,12.6,3.2,24.5,13.4,31.5c7.7,5.3,17,7.4,24.8,12.5
			c2.9,1.9,6.3,5.1,9.3,8.8c-0.4-0.4-1-1.4,0.5,0.7c0.8,1.1,1.5,2.2,2.3,3.4c1.5,2.3,2.8,4.7,4,7.2c8.6,17.6,11.7,41.4,14.8,61.9
			c4.5,29.4,7.2,60,1.9,89.5c8.2,1.1,16.4,2.2,24.6,3.3c-1-23.1-2.1-46.3-3.1-69.4c-8.3,0-16.7,0-25,0c2.4,23-0.9,45.6-9.7,67
			c8,0,16.1,0,24.1,0c-8.2-22.1-8.5-45.3-0.7-67.6c-7,1.8-13.9,3.7-20.9,5.5c28.9,34.6,52.6,73.4,70.7,114.7
			c2.5,5.6,10.5,7.4,15.6,5.1c5.5-2.4,9.1-8.7,7.2-14.7c-7.4-24-14.8-48.1-22.2-72.1c-3.3-10.8-6.3-21.8-11-32.1
			c-4-8.9-12.8-24-23.9-24c-9.1,0-18.1,7.5-25,12.7c-3.3,2.5-6.7,4.8-10.3,6.8c-0.3,0.2-2.2,0.9-0.4,0.3c-0.8,0.3-1.5,0.5-2.3,0.7
			c-3.5,1.3,1.3-0.2-0.9,0.2c-0.6,0-1.2,0-1.9,0c1,0.2,1,0.2,0.2,0c-2.3-0.1-3.7-1.5-5.8-3.8c-1.5-1.7,1.4,2.3-0.8-1
			c-0.5-0.7-0.9-1.5-1.4-2.2c-0.4-0.8-0.9-1.6-1.3-2.4c0,0.1-1.6-3.7-0.9-2c-3.9-9.6-5.8-20.3-8.1-30.4c-6.1-26.9-11.1-54.1-15-81.5
			c-0.9-6.1-8.3-9.8-13.7-9c-6.7,1-10,5.9-10.8,12.3c-1.9,14.3-7,28-14.1,40.5c7.6,1,15.2,2,22.8,3c-6.3-24.4-14.5-48.2-24.3-71.4
			c-7.7-18.3-18.4-49.4-43.5-47.3c-8.8,0.7-13.4,7.4-12.1,15.8c5.9,37.9,2.2,76.8-9.6,113.2c-3.8,11.7,12.6,21.4,20.9,12.2
			c9.5-10.7,10-23.5,7.5-37c-1-5.7-2.5-11.3-3.4-17c0.3,2-0.2-1.7-0.2-1.9c-0.1-1.3-0.2-2.6-0.1-3.8c0-0.4,0.3-3.9,0-1.7
			c0.2-1.7,0.7-3.2,1.3-4.8c-7.6,1-15.2,2-22.8,3c52.2,72.6,101.3,148.1,137,230.3c9.9,22.7,18.5,45.9,25.9,69.4
			c7.6-3.2,15.2-6.4,22.8-9.6c-19.7-30-32-63.9-46.6-96.5c-7.2-16.1-15-31.9-24.7-46.7c-10.1-15.3-22-28.1-35.4-40.6
			c-7-6.5-11.8-12.9-12.8-22.7c-1.1-11.4,0.9-22.6,4.7-33.3c-6.1,2.5-12.2,5-18.4,7.5c44.1,22.3,65.8,70.5,78.8,116.6
			c15.9,56.5,24.3,115.4,58.8,164.5c17.3,24.5,39.1,47.4,49.8,75.8c2.4,6.3,8.4,10.6,15.4,8.7c6.5-1.8,10.6-8.9,8.7-15.4
			c-8.5-30.6-5.3-62.7-1.6-93.9c1.9-15.9,4.6-32,4.3-48c-0.3-17-6.6-32.5-9.5-49.1c-2.7-15.5-2.5-31.5-2.6-47.2
			c-0.1-17-0.4-34.1-0.9-51.1c-1-33.8-2.9-67.6-5.6-101.3c-3.1-38.4-7.4-76.8-12.7-115c-8,2.2-16.1,4.4-24.1,6.6
			c5.4,24.3,10.8,48.6,16.2,72.9c2.7,12,5.3,24,8,36c2.5,11.2,4.7,22.2,3.8,33.8c8.2-1.1,16.4-2.2,24.6-3.3
			c-19.2-52.3-36.2-105.4-51-159.2c-1.8-6.5-8.9-10.5-15.4-8.7c-7.1,2-9.7,8.7-8.7,15.4c12.6,82.6,25.1,165.3,37.7,247.9
			c3.6,23.4,7.1,46.8,10.7,70.1c8-2.2,16.1-4.4,24.1-6.6c-15.6-74.1-31.2-148.2-52.1-221c-5.9-20.7-12.3-41.3-19.2-61.8
			c-2-5.9-7.4-9.9-13.7-9c-5.9,0.9-11.1,6-10.8,12.3c4.3,97.1,9.4,194.2,19.3,290.9c2.7,25.9,4.7,52.3,16.9,75.8
			c5.1,9.9,19.9,6.8,22.8-3c22.5-74.2,43.2-148.8,62.1-224c2.6-10.2,5.6-20.4,7.6-30.6c2.2-11.1-0.9-21.9-12.3-26
			c-5.6-2-11,1.5-14.1,5.7c-13.8,18.8-27.6,37.6-41.4,56.4c-6,8.2-12.3,17.2-18.3,24.9c-2.4,3-5.7,6.9-8.2,8.8c-1.5,1.2-3.2,2.3-5,3
			c-0.5,0.2-2.5,0.4-3.4,0.4c3.6,2.1,7.2,4.1,10.8,6.2c-10.1-15.7-16.9-32.7-22.2-50.5c-5.2-17.5-9.8-35.6-12.9-53.6
			c-1.1-6.5-2-14.6-0.9-22.3c-0.2,1.7,0.7-3,0.8-3.3c0.2-0.9,0.5-1.7,0.8-2.5c0.1-0.2,0.9-2.2,0.2-0.7c1.6-3.8,2.3-4.6,5-7.1
			c6.9-6.5,15.4-12.9,15.8-23.4c0.4-11.8-9.6-18.3-20-20c-21-3.5-42.1-6.1-63.1-9.7c-10.3-1.8-20.6-3.7-30.7-6.2
			c-4.9-1.2-9.8-2.5-14.7-3.9c-4.2-1.2-6.5-2-8.9-3.3c0.9,0.5-0.8-1.5-0.4-0.4c0.2,0.5,0.6,0.9,0.7,1.4c0.1,0.6-0.1,1.2-0.1,1.7
			c0.2,1.3-1.3,0.4-0.1,0.4c0.7,0,1.8-1.4,2.3-1.8c1.7-1,3.5-1.9,5.3-2.7c9.2-4,18.8-7.3,28.4-10.2c18.8-5.7,38.2-9.7,57.8-11.4
			c11.3-1,22.6-1.4,33.9-1.1c11.3,0.3,22.6,1.9,33.9,1.7c21.1-0.4,44.9-10.2,49.9-32.9c1.8-8.3-3.7-15.3-12.1-15.8
			c-40.4-2.6-80.9-3.8-121.3-3.6c-20.6,0.1-41.1,0.6-61.7,1.5c-9.5,0.4-19,0.6-28.4,1.5c-8.3,0.8-16.9,2.7-23,8.9
			c-9.2,9.3-6.2,21.3-3.7,32.6c2.5,11.1,5,22.2,7.6,33.3c1.5,6.6,9.1,10.5,15.4,8.7C380.9,83.4,384.3,76.5,382.8,69.9L382.8,69.9z"
			/>
	</g>
</g>
<g>
	<g>
		<path class="st4" d="M218.7,337c-1.2,25.9-2.3,52-6.8,77.6c-2.2,12.2-5,24.3-9,36c-4.2,12.4-10,24.1-15.5,35.9
			c-5.4,11.6-9.9,23.4-13.2,35.8c-3.4,12.6-6.2,25.4-10.2,37.8c-7.3,22.9-17.5,44.7-26.9,66.8c-10.4,24.4-19.9,49.4-23.7,75.8
			c-0.4,3.1,4.4,4.5,4.8,1.3c6.8-48.3,32.7-90.5,48.4-136.1c8.6-25.1,12.4-51.4,23.5-75.6c5.2-11.5,11-22.7,15.4-34.5
			c4.5-11.9,7.7-24.2,10.2-36.7c5.4-27.7,6.7-56.1,8-84.2C223.9,333.8,218.9,333.8,218.7,337L218.7,337z"/>
	</g>
</g>
<g>
	<g>
		<path class="st4" d="M273.8,321.3c-1.9,46.1,4.8,91.9,11.7,137.4c7.2,47.2,12.9,94.1,13.3,141.9c0.3,27.1-0.5,54.2-1.3,81.3
			c-0.1,3.2,4.9,3.2,5,0c1.4-47.9,2.7-95.9-1.5-143.6c-4.2-46.4-13.4-92.2-18.6-138.5c-3-26.1-4.6-52.3-3.5-78.5
			C279,318.1,274,318.1,273.8,321.3L273.8,321.3z"/>
	</g>
</g>
<g>
	<g>
		<path class="st4" d="M337.8,327.7c6.9,48.3,24.7,93.8,42.9,138.7c9,22.4,18.2,44.7,26.2,67.4c7.7,21.8,13.3,43.9,19.1,66.2
			c5.8,22.4,13.5,45.2,30.9,61.3c2.4,2.2,5.9-1.3,3.5-3.5c-16-14.8-23.3-35.5-28.8-56.1c-5.7-21.6-10.9-43.1-18.1-64.2
			c-15.4-45-35.7-88.2-51.2-133.2c-8.7-25.4-15.8-51.3-19.6-77.9C342.2,323.2,337.4,324.5,337.8,327.7L337.8,327.7z"/>
	</g>
</g>
</svg>
